<svg width="970" height="200" viewBox="0 0 970 200" fill="none" xmlns="http://www.w3.org/2000/svg">
<g filter="url(#filter0_d_15_2)">
<path d="M93.0301 73.9C101.63 73.9 108.68 77.15 114.18 83.65C119.68 90.15 122.43 99.55 122.43 111.85C122.43 124.05 118.93 134 111.93 141.7C105.03 149.3 96.2301 153.1 85.5301 153.1C80.2301 153.1 74.8801 152.15 69.4801 150.25V184.75H58.0801V91L56.5801 76L66.4801 75.25L69.0301 89.05C74.6301 78.95 82.6301 73.9 93.0301 73.9ZM111.03 112.15C111.03 103.05 109.13 96.1 105.33 91.3C101.53 86.5 96.6801 84.1 90.7801 84.1C84.9801 84.1 80.0301 86.95 75.9301 92.65C71.8301 98.35 69.6801 106.5 69.4801 117.1V138.7C74.6801 141.5 80.0301 142.9 85.5301 142.9C92.9301 142.9 99.0301 140.05 103.83 134.35C108.63 128.55 111.03 121.15 111.03 112.15ZM187.148 151H175.748V91L174.248 76L184.148 75.25L187.148 93.25C190.148 87.05 193.948 82.35 198.548 79.15C203.148 75.95 208.148 74.35 213.548 74.35L214.298 85.75C196.698 87.15 187.648 100.6 187.148 126.1V151ZM270.482 56.05C270.482 57.85 268.732 62 265.232 68.5L256.532 84.4L251.732 82.75L257.882 49C266.282 49 270.482 51.35 270.482 56.05ZM318.188 151V49H373.688V59.8H330.188V94.6H365.738V105.4H330.188V140.2H376.688V151H318.188ZM480.903 143.8C473.703 150 465.303 153.1 455.703 153.1C446.203 153.1 438.303 149.9 432.003 143.5C425.803 137.1 422.703 127.8 422.703 115.6C422.703 103.3 425.803 93.3 432.003 85.6C438.303 77.8 447.003 73.9 458.103 73.9C465.003 73.9 471.403 75.7 477.303 79.3L474.453 88.45C469.153 85.55 463.803 84.1 458.403 84.1C451.003 84.1 445.103 86.9 440.703 92.5C436.303 98.1 434.103 105.6 434.103 115C434.103 124.3 436.103 131.3 440.103 136C444.203 140.6 449.403 142.9 455.703 142.9C463.703 142.9 470.603 140.5 476.403 135.7L480.903 143.8ZM531.646 142.15C526.146 134.75 523.396 125.2 523.396 113.5C523.396 101.8 526.146 92.3 531.646 85C537.146 77.6 545.346 73.9 556.246 73.9C567.246 73.9 575.546 77.6 581.146 85C586.746 92.3 589.546 101.8 589.546 113.5C589.546 125.2 586.746 134.75 581.146 142.15C575.546 149.45 567.246 153.1 556.246 153.1C545.346 153.1 537.146 149.45 531.646 142.15ZM540.196 92.35C536.596 97.75 534.796 104.8 534.796 113.5C534.796 122.2 536.596 129.3 540.196 134.8C543.796 140.2 549.196 142.9 556.396 142.9C563.596 142.9 568.996 140.2 572.596 134.8C576.296 129.3 578.146 122.2 578.146 113.5C578.146 104.8 576.296 97.75 572.596 92.35C568.996 86.85 563.596 84.1 556.396 84.1C549.196 84.1 543.796 86.85 540.196 92.35ZM678.049 73.9C690.049 73.9 697.549 80.15 700.549 92.65C703.449 86.65 707.149 82.05 711.649 78.85C716.249 75.55 720.949 73.9 725.749 73.9C733.449 73.9 739.349 76.55 743.449 81.85C747.549 87.05 749.599 94.9 749.599 105.4V151H738.199V105.4C738.199 91.2 733.449 84.1 723.949 84.1C718.449 84.1 713.449 87.1 708.949 93.1C704.549 99.1 702.199 107.35 701.899 117.85V151H690.499V105.4C690.499 91.2 685.749 84.1 676.249 84.1C670.749 84.1 665.749 87.1 661.249 93.1C656.849 99.1 654.499 107.35 654.199 117.85V151H642.799V91L641.299 76L651.199 75.25L654.049 90.4C657.049 85.1 660.699 81.05 664.999 78.25C669.299 75.35 673.649 73.9 678.049 73.9ZM841.859 73.9C853.859 73.9 861.359 80.15 864.359 92.65C867.259 86.65 870.959 82.05 875.459 78.85C880.059 75.55 884.759 73.9 889.559 73.9C897.259 73.9 903.159 76.55 907.259 81.85C911.359 87.05 913.409 94.9 913.409 105.4V151H902.009V105.4C902.009 91.2 897.259 84.1 887.759 84.1C882.259 84.1 877.259 87.1 872.759 93.1C868.359 99.1 866.009 107.35 865.709 117.85V151H854.309V105.4C854.309 91.2 849.559 84.1 840.059 84.1C834.559 84.1 829.559 87.1 825.059 93.1C820.659 99.1 818.309 107.35 818.009 117.85V151H806.609V91L805.109 76L815.009 75.25L817.859 90.4C820.859 85.1 824.509 81.05 828.809 78.25C833.109 75.35 837.459 73.9 841.859 73.9Z" fill="black"/>
<path d="M114.18 83.65L114.943 83.0041L114.943 83.0041L114.18 83.65ZM111.93 141.7L111.19 141.027L111.19 141.028L111.93 141.7ZM69.4801 150.25L69.812 149.307L68.4801 148.838V150.25H69.4801ZM69.4801 184.75V185.75H70.4801V184.75H69.4801ZM58.0801 184.75H57.0801V185.75H58.0801V184.75ZM58.0801 91H59.0801V90.9501L59.0751 90.9005L58.0801 91ZM56.5801 76L56.5045 75.0029L55.4831 75.0802L55.585 76.0995L56.5801 76ZM66.4801 75.25L67.4634 75.0683L67.3002 74.185L66.4045 74.2529L66.4801 75.25ZM69.0301 89.05L68.0467 89.2317L68.5532 91.9724L69.9046 89.5349L69.0301 89.05ZM105.33 91.3L104.546 91.9207L104.546 91.9207L105.33 91.3ZM75.9301 92.65L75.1183 92.0661L75.1183 92.0661L75.9301 92.65ZM69.4801 117.1L68.4803 117.081L68.4801 117.091V117.1H69.4801ZM69.4801 138.7H68.4801V139.297L69.006 139.58L69.4801 138.7ZM103.83 134.35L104.595 134.994L104.6 134.988L103.83 134.35ZM93.0301 74.9C101.339 74.9 108.109 78.0231 113.417 84.2959L114.943 83.0041C109.251 76.2769 101.921 72.9 93.0301 72.9V74.9ZM113.417 84.2959C118.708 90.5499 121.43 99.6836 121.43 111.85H123.43C123.43 99.4164 120.652 89.7501 114.943 83.0041L113.417 84.2959ZM121.43 111.85C121.43 123.847 117.994 133.543 111.19 141.027L112.67 142.373C119.866 134.457 123.43 124.253 123.43 111.85H121.43ZM111.19 141.028C104.488 148.409 95.9616 152.1 85.5301 152.1V154.1C96.4985 154.1 105.572 150.191 112.67 142.372L111.19 141.028ZM85.5301 152.1C80.3518 152.1 75.1139 151.172 69.812 149.307L69.1482 151.193C74.6463 153.128 80.1083 154.1 85.5301 154.1V152.1ZM68.4801 150.25V184.75H70.4801V150.25H68.4801ZM69.4801 183.75H58.0801V185.75H69.4801V183.75ZM59.0801 184.75V91H57.0801V184.75H59.0801ZM59.0751 90.9005L57.5751 75.9005L55.585 76.0995L57.085 91.0995L59.0751 90.9005ZM56.6556 76.9971L66.5556 76.2471L66.4045 74.2529L56.5045 75.0029L56.6556 76.9971ZM65.4967 75.4317L68.0467 89.2317L70.0134 88.8683L67.4634 75.0683L65.4967 75.4317ZM69.9046 89.5349C75.3521 79.71 83.04 74.9 93.0301 74.9V72.9C82.2202 72.9 73.908 78.19 68.1555 88.5651L69.9046 89.5349ZM112.03 112.15C112.03 102.93 110.108 95.7238 106.114 90.6793L104.546 91.9207C108.152 96.4762 110.03 103.17 110.03 112.15H112.03ZM106.114 90.6793C102.133 85.6502 96.9988 83.1 90.7801 83.1V85.1C96.3614 85.1 100.927 87.3498 104.546 91.9207L106.114 90.6793ZM90.7801 83.1C84.5887 83.1 79.3615 86.167 75.1183 92.0661L76.7419 93.2339C80.6987 87.733 85.3714 85.1 90.7801 85.1V83.1ZM75.1183 92.0661C70.8533 97.9954 68.6823 106.375 68.4803 117.081L70.4799 117.119C70.6779 106.625 72.8068 98.7046 76.7419 93.2339L75.1183 92.0661ZM68.4801 117.1V138.7H70.4801V117.1H68.4801ZM69.006 139.58C74.3406 142.453 79.8525 143.9 85.5301 143.9V141.9C80.2077 141.9 75.0195 140.547 69.9542 137.82L69.006 139.58ZM85.5301 143.9C93.2274 143.9 99.6065 140.918 104.595 134.994L103.065 133.706C98.4536 139.182 92.6327 141.9 85.5301 141.9V143.9ZM104.6 134.988C109.577 128.975 112.03 121.335 112.03 112.15H110.03C110.03 120.965 107.684 128.125 103.06 133.712L104.6 134.988ZM187.148 151V152H188.148V151H187.148ZM175.748 151H174.748V152H175.748V151ZM175.748 91H176.748V90.9501L176.743 90.9005L175.748 91ZM174.248 76L174.173 75.0029L173.151 75.0802L173.253 76.0995L174.248 76ZM184.148 75.25L185.134 75.0856L184.984 74.1838L184.073 74.2529L184.148 75.25ZM187.148 93.25L186.162 93.4144L186.679 96.5161L188.048 93.6856L187.148 93.25ZM213.548 74.35L214.546 74.2843L214.484 73.35H213.548V74.35ZM214.298 85.75L214.377 86.7468L215.361 86.6686L215.296 85.6843L214.298 85.75ZM187.148 126.1L186.148 126.08L186.148 126.09V126.1H187.148ZM187.148 150H175.748V152H187.148V150ZM176.748 151V91H174.748V151H176.748ZM176.743 90.9005L175.243 75.9005L173.253 76.0995L174.753 91.0995L176.743 90.9005ZM174.324 76.9971L184.224 76.2471L184.073 74.2529L174.173 75.0029L174.324 76.9971ZM183.162 75.4144L186.162 93.4144L188.134 93.0856L185.134 75.0856L183.162 75.4144ZM188.048 93.6856C190.99 87.605 194.689 83.0527 199.119 79.9709L197.977 78.3291C193.207 81.6472 189.306 86.495 186.248 92.8144L188.048 93.6856ZM199.119 79.9709C203.558 76.8828 208.36 75.35 213.548 75.35V73.35C207.936 73.35 202.738 75.0172 197.977 78.3291L199.119 79.9709ZM212.55 74.4156L213.3 85.8156L215.296 85.6843L214.546 74.2843L212.55 74.4156ZM214.219 84.7531C205.146 85.4749 198.193 89.3266 193.481 96.3292C188.803 103.281 186.4 113.239 186.148 126.08L188.148 126.12C188.396 113.461 190.768 103.944 195.14 97.4457C199.478 90.9984 205.85 87.4251 214.377 86.7468L214.219 84.7531ZM186.148 126.1V151H188.148V126.1H186.148ZM265.232 68.5L266.11 68.98L266.113 68.9741L265.232 68.5ZM256.532 84.4L256.207 85.3457L257.005 85.6198L257.41 84.88L256.532 84.4ZM251.732 82.75L250.749 82.5707L250.595 83.4163L251.407 83.6957L251.732 82.75ZM257.882 49V48H257.048L256.899 48.8207L257.882 49ZM269.482 56.05C269.482 56.7241 269.127 58.0404 268.248 60.1239C267.391 62.1574 266.095 64.7886 264.352 68.0259L266.113 68.9741C267.87 65.7114 269.199 63.0176 270.091 60.9011C270.963 58.8346 271.482 57.1758 271.482 56.05H269.482ZM264.355 68.02L255.655 83.92L257.41 84.88L266.11 68.98L264.355 68.02ZM256.858 83.4543L252.058 81.8043L251.407 83.6957L256.207 85.3457L256.858 83.4543ZM252.716 82.9293L258.866 49.1793L256.899 48.8207L250.749 82.5707L252.716 82.9293ZM257.882 50C262.022 50 264.967 50.5847 266.844 51.6352C267.768 52.1519 268.415 52.7712 268.836 53.4774C269.256 54.1825 269.482 55.0285 269.482 56.05H271.482C271.482 54.7215 271.184 53.5113 270.554 52.4538C269.925 51.3976 268.997 50.5481 267.821 49.8898C265.498 48.5903 262.143 48 257.882 48V50ZM318.188 151H317.188V152H318.188V151ZM318.188 49V48H317.188V49H318.188ZM373.688 49H374.688V48H373.688V49ZM373.688 59.8V60.8H374.688V59.8H373.688ZM330.188 59.8V58.8H329.188V59.8H330.188ZM330.188 94.6H329.188V95.6H330.188V94.6ZM365.738 94.6H366.738V93.6H365.738V94.6ZM365.738 105.4V106.4H366.738V105.4H365.738ZM330.188 105.4V104.4H329.188V105.4H330.188ZM330.188 140.2H329.188V141.2H330.188V140.2ZM376.688 140.2H377.688V139.2H376.688V140.2ZM376.688 151V152H377.688V151H376.688ZM319.188 151V49H317.188V151H319.188ZM318.188 50H373.688V48H318.188V50ZM372.688 49V59.8H374.688V49H372.688ZM373.688 58.8H330.188V60.8H373.688V58.8ZM329.188 59.8V94.6H331.188V59.8H329.188ZM330.188 95.6H365.738V93.6H330.188V95.6ZM364.738 94.6V105.4H366.738V94.6H364.738ZM365.738 104.4H330.188V106.4H365.738V104.4ZM329.188 105.4V140.2H331.188V105.4H329.188ZM330.188 141.2H376.688V139.2H330.188V141.2ZM375.688 140.2V151H377.688V140.2H375.688ZM376.688 150H318.188V152H376.688V150ZM480.903 143.8L481.556 144.558L482.173 144.026L481.777 143.314L480.903 143.8ZM432.003 143.5L431.285 144.196L431.29 144.202L432.003 143.5ZM432.003 85.6L431.225 84.9717L431.224 84.9728L432.003 85.6ZM477.303 79.3L478.258 79.5974L478.49 78.8526L477.824 78.4464L477.303 79.3ZM474.453 88.45L473.973 89.3273L475.045 89.9136L475.408 88.7474L474.453 88.45ZM440.103 136L439.342 136.648L439.349 136.657L439.357 136.665L440.103 136ZM476.403 135.7L477.277 135.214L476.693 134.162L475.766 134.93L476.403 135.7ZM480.251 143.042C473.234 149.084 465.066 152.1 455.703 152.1V154.1C465.54 154.1 474.172 150.916 481.556 144.558L480.251 143.042ZM455.703 152.1C446.454 152.1 438.816 148.996 432.716 142.798L431.29 144.202C437.79 150.804 445.952 154.1 455.703 154.1V152.1ZM432.721 142.804C426.76 136.651 423.703 127.638 423.703 115.6H421.703C421.703 127.962 424.846 137.549 431.285 144.196L432.721 142.804ZM423.703 115.6C423.703 103.471 426.757 93.7095 432.782 86.2272L431.224 84.9728C424.849 92.8905 421.703 103.129 421.703 115.6H423.703ZM432.781 86.2283C438.869 78.6906 447.268 74.9 458.103 74.9V72.9C446.738 72.9 437.737 76.9094 431.225 84.9717L432.781 86.2283ZM458.103 74.9C464.819 74.9 471.039 76.6492 476.782 80.1536L477.824 78.4464C471.767 74.7508 465.187 72.9 458.103 72.9V74.9ZM476.348 79.0026L473.498 88.1526L475.408 88.7474L478.258 79.5974L476.348 79.0026ZM474.933 87.5727C469.504 84.6019 463.99 83.1 458.403 83.1V85.1C463.616 85.1 468.802 86.4981 473.973 89.3273L474.933 87.5727ZM458.403 83.1C450.71 83.1 444.515 86.0301 439.917 91.8822L441.489 93.1178C445.691 87.7699 451.296 85.1 458.403 85.1V83.1ZM439.917 91.8822C435.34 97.7076 433.103 105.448 433.103 115H435.103C435.103 105.752 437.267 98.4924 441.489 93.1178L439.917 91.8822ZM433.103 115C433.103 124.421 435.126 131.695 439.342 136.648L440.865 135.352C437.08 130.905 435.103 124.179 435.103 115H433.103ZM439.357 136.665C443.651 141.484 449.125 143.9 455.703 143.9V141.9C449.681 141.9 444.755 139.716 440.85 135.335L439.357 136.665ZM455.703 143.9C463.92 143.9 471.05 141.429 477.041 136.47L475.766 134.93C470.157 139.571 463.486 141.9 455.703 141.9V143.9ZM475.529 136.186L480.029 144.286L481.777 143.314L477.277 135.214L475.529 136.186ZM531.646 142.15L530.844 142.747L530.848 142.752L531.646 142.15ZM531.646 85L532.445 85.6018L532.449 85.5965L531.646 85ZM581.146 85L580.349 85.6035L580.353 85.6087L581.146 85ZM581.146 142.15L581.94 142.759L581.944 142.753L581.146 142.15ZM540.196 92.35L541.029 92.9047L541.033 92.8977L540.196 92.35ZM540.196 134.8L539.36 135.348L539.364 135.355L540.196 134.8ZM572.596 134.8L571.767 134.242L571.764 134.245L572.596 134.8ZM572.596 92.35L571.76 92.8977L571.766 92.9065L571.772 92.9152L572.596 92.35ZM532.449 141.553C527.108 134.368 524.396 125.043 524.396 113.5H522.396C522.396 125.357 525.185 135.132 530.844 142.747L532.449 141.553ZM524.396 113.5C524.396 101.956 527.108 92.6851 532.445 85.6017L530.848 84.3982C525.185 91.9149 522.396 101.644 522.396 113.5H524.396ZM532.449 85.5965C537.725 78.4985 545.598 74.9 556.246 74.9V72.9C545.095 72.9 536.568 76.7015 530.844 84.4035L532.449 85.5965ZM556.246 74.9C566.999 74.9 574.974 78.5011 580.349 85.6034L581.944 84.3966C576.119 76.6989 567.494 72.9 556.246 72.9V74.9ZM580.353 85.6087C585.786 92.6914 588.546 101.96 588.546 113.5H590.546C590.546 101.64 587.707 91.9086 581.94 84.3913L580.353 85.6087ZM588.546 113.5C588.546 125.04 585.787 134.361 580.349 141.547L581.944 142.753C587.706 135.139 590.546 125.36 590.546 113.5H588.546ZM580.353 141.541C574.98 148.545 567.004 152.1 556.246 152.1V154.1C567.489 154.1 576.113 150.355 581.94 142.759L580.353 141.541ZM556.246 152.1C545.592 152.1 537.719 148.548 532.445 141.548L530.848 142.752C536.574 150.352 545.101 154.1 556.246 154.1V152.1ZM539.364 91.7953C535.623 97.4069 533.796 104.668 533.796 113.5H535.796C535.796 104.932 537.57 98.0931 541.029 92.9047L539.364 91.7953ZM533.796 113.5C533.796 122.333 535.624 129.64 539.36 135.348L541.033 134.252C537.569 128.96 535.796 122.067 535.796 113.5H533.796ZM539.364 135.355C543.173 141.067 548.905 143.9 556.396 143.9V141.9C549.488 141.9 544.42 139.333 541.029 134.245L539.364 135.355ZM556.396 143.9C563.888 143.9 569.62 141.067 573.429 135.355L571.764 134.245C568.373 139.333 563.305 141.9 556.396 141.9V143.9ZM573.426 135.358C577.267 129.649 579.146 122.338 579.146 113.5H577.146C577.146 122.062 575.326 128.951 571.767 134.242L573.426 135.358ZM579.146 113.5C579.146 104.664 577.268 97.398 573.421 91.7848L571.772 92.9152C575.325 98.102 577.146 104.936 577.146 113.5H579.146ZM573.433 91.8023C569.628 85.9896 563.896 83.1 556.396 83.1V85.1C563.297 85.1 568.364 87.7104 571.76 92.8977L573.433 91.8023ZM556.396 83.1C548.897 83.1 543.164 85.9896 539.36 91.8023L541.033 92.8977C544.428 87.7104 549.496 85.1 556.396 85.1V83.1ZM700.549 92.65L699.576 92.8834L700.23 95.6072L701.449 93.0852L700.549 92.65ZM711.649 78.85L712.228 79.665L712.232 79.6625L711.649 78.85ZM743.449 81.85L742.658 82.4619L742.664 82.4692L743.449 81.85ZM749.599 151V152H750.599V151H749.599ZM738.199 151H737.199V152H738.199V151ZM708.949 93.1L708.149 92.5L708.142 92.5086L708.949 93.1ZM701.899 117.85L700.899 117.821L700.899 117.836V117.85H701.899ZM701.899 151V152H702.899V151H701.899ZM690.499 151H689.499V152H690.499V151ZM661.249 93.1L660.449 92.5L660.442 92.5086L661.249 93.1ZM654.199 117.85L653.199 117.821L653.199 117.836V117.85H654.199ZM654.199 151V152H655.199V151H654.199ZM642.799 151H641.799V152H642.799V151ZM642.799 91H643.799V90.9501L643.794 90.9005L642.799 91ZM641.299 76L641.223 75.0029L640.202 75.0802L640.304 76.0995L641.299 76ZM651.199 75.25L652.182 75.0651L652.016 74.1852L651.123 74.2529L651.199 75.25ZM654.049 90.4L653.066 90.5849L653.572 93.2729L654.919 90.8926L654.049 90.4ZM664.999 78.25L665.545 79.088L665.551 79.0836L665.558 79.0791L664.999 78.25ZM678.049 74.9C683.87 74.9 688.502 76.4125 692.034 79.3557C695.573 82.3049 698.111 86.7767 699.576 92.8834L701.521 92.4166C699.987 86.0233 697.275 81.1201 693.314 77.8193C689.346 74.5125 684.227 72.9 678.049 72.9V74.9ZM701.449 93.0852C704.291 87.2055 707.891 82.7491 712.228 79.6649L711.069 78.035C706.406 81.3509 702.607 86.0944 699.648 92.2148L701.449 93.0852ZM712.232 79.6625C716.693 76.4619 721.194 74.9 725.749 74.9V72.9C720.704 72.9 715.804 74.6381 711.066 78.0375L712.232 79.6625ZM725.749 74.9C733.192 74.9 738.777 77.4453 742.658 82.4619L744.24 81.2381C739.921 75.6547 733.706 72.9 725.749 72.9V74.9ZM742.664 82.4692C746.564 87.4158 748.599 95.0016 748.599 105.4H750.599C750.599 94.7984 748.534 86.6842 744.234 81.2308L742.664 82.4692ZM748.599 105.4V151H750.599V105.4H748.599ZM749.599 150H738.199V152H749.599V150ZM739.199 151V105.4H737.199V151H739.199ZM739.199 105.4C739.199 98.22 738.004 92.6599 735.467 88.8689C732.884 85.0069 728.989 83.1 723.949 83.1V85.1C728.409 85.1 731.639 86.7431 733.805 89.981C736.019 93.2901 737.199 98.38 737.199 105.4H739.199ZM723.949 83.1C718.029 83.1 712.764 86.3467 708.149 92.5L709.749 93.7C714.134 87.8533 718.869 85.1 723.949 85.1V83.1ZM708.142 92.5086C703.582 98.727 701.203 107.199 700.899 117.821L702.898 117.879C703.195 107.501 705.515 99.473 709.755 93.6914L708.142 92.5086ZM700.899 117.85V151H702.899V117.85H700.899ZM701.899 150H690.499V152H701.899V150ZM691.499 151V105.4H689.499V151H691.499ZM691.499 105.4C691.499 98.22 690.304 92.6599 687.767 88.8689C685.184 85.0069 681.289 83.1 676.249 83.1V85.1C680.709 85.1 683.939 86.7431 686.105 89.981C688.319 93.2901 689.499 98.38 689.499 105.4H691.499ZM676.249 83.1C670.329 83.1 665.064 86.3467 660.449 92.5L662.049 93.7C666.434 87.8533 671.169 85.1 676.249 85.1V83.1ZM660.442 92.5086C655.882 98.727 653.503 107.199 653.199 117.821L655.198 117.879C655.495 107.501 657.815 99.473 662.055 93.6914L660.442 92.5086ZM653.199 117.85V151H655.199V117.85H653.199ZM654.199 150H642.799V152H654.199V150ZM643.799 151V91H641.799V151H643.799ZM643.794 90.9005L642.294 75.9005L640.304 76.0995L641.804 91.0995L643.794 90.9005ZM641.374 76.9971L651.274 76.2471L651.123 74.2529L641.223 75.0029L641.374 76.9971ZM650.216 75.4349L653.066 90.5849L655.032 90.2151L652.182 75.0651L650.216 75.4349ZM654.919 90.8926C657.855 85.7061 661.402 81.7856 665.545 79.088L664.453 77.412C659.996 80.3144 656.243 84.4939 653.179 89.9074L654.919 90.8926ZM665.558 79.0791C669.723 76.2701 673.882 74.9 678.049 74.9V72.9C673.416 72.9 668.875 74.4299 664.44 77.4209L665.558 79.0791ZM864.359 92.65L863.387 92.8834L864.041 95.6072L865.26 93.0852L864.359 92.65ZM875.459 78.85L876.039 79.665L876.042 79.6625L875.459 78.85ZM907.259 81.85L906.468 82.4619L906.474 82.4692L907.259 81.85ZM913.409 151V152H914.409V151H913.409ZM902.009 151H901.009V152H902.009V151ZM872.759 93.1L871.959 92.5L871.953 92.5086L872.759 93.1ZM865.709 117.85L864.71 117.821L864.709 117.836V117.85H865.709ZM865.709 151V152H866.709V151H865.709ZM854.309 151H853.309V152H854.309V151ZM825.059 93.1L824.259 92.5L824.253 92.5086L825.059 93.1ZM818.009 117.85L817.01 117.821L817.009 117.836V117.85H818.009ZM818.009 151V152H819.009V151H818.009ZM806.609 151H805.609V152H806.609V151ZM806.609 91H807.609V90.9501L807.604 90.9005L806.609 91ZM805.109 76L805.034 75.0029L804.012 75.0802L804.114 76.0995L805.109 76ZM815.009 75.25L815.992 75.0651L815.827 74.1852L814.934 74.2529L815.009 75.25ZM817.859 90.4L816.877 90.5849L817.382 93.2729L818.73 90.8926L817.859 90.4ZM828.809 78.25L829.355 79.088L829.362 79.0836L829.369 79.0791L828.809 78.25ZM841.859 74.9C847.681 74.9 852.312 76.4125 855.844 79.3557C859.383 82.3049 861.921 86.7767 863.387 92.8834L865.332 92.4166C863.797 86.0233 861.086 81.1201 857.125 77.8193C853.156 74.5125 848.038 72.9 841.859 72.9V74.9ZM865.26 93.0852C868.102 87.2055 871.702 82.7491 876.039 79.6649L874.88 78.035C870.217 81.3509 866.417 86.0944 863.459 92.2148L865.26 93.0852ZM876.042 79.6625C880.504 76.4619 885.004 74.9 889.559 74.9V72.9C884.515 72.9 879.615 74.6381 874.876 78.0375L876.042 79.6625ZM889.559 74.9C897.002 74.9 902.588 77.4453 906.468 82.4619L908.05 81.2381C903.731 75.6547 897.517 72.9 889.559 72.9V74.9ZM906.474 82.4692C910.374 87.4158 912.409 95.0016 912.409 105.4H914.409C914.409 94.7984 912.344 86.6842 908.045 81.2308L906.474 82.4692ZM912.409 105.4V151H914.409V105.4H912.409ZM913.409 150H902.009V152H913.409V150ZM903.009 151V105.4H901.009V151H903.009ZM903.009 105.4C903.009 98.22 901.814 92.6599 899.278 88.8689C896.694 85.0069 892.799 83.1 887.759 83.1V85.1C892.22 85.1 895.45 86.7431 897.616 89.981C899.83 93.2901 901.009 98.38 901.009 105.4H903.009ZM887.759 83.1C881.839 83.1 876.574 86.3467 871.959 92.5L873.559 93.7C877.944 87.8533 882.68 85.1 887.759 85.1V83.1ZM871.953 92.5086C867.393 98.727 865.013 107.199 864.71 117.821L866.709 117.879C867.005 107.501 869.326 99.473 873.566 93.6914L871.953 92.5086ZM864.709 117.85V151H866.709V117.85H864.709ZM865.709 150H854.309V152H865.709V150ZM855.309 151V105.4H853.309V151H855.309ZM855.309 105.4C855.309 98.22 854.114 92.6599 851.578 88.8689C848.994 85.0069 845.099 83.1 840.059 83.1V85.1C844.52 85.1 847.75 86.7431 849.916 89.981C852.13 93.2901 853.309 98.38 853.309 105.4H855.309ZM840.059 83.1C834.139 83.1 828.874 86.3467 824.259 92.5L825.859 93.7C830.244 87.8533 834.98 85.1 840.059 85.1V83.1ZM824.253 92.5086C819.693 98.727 817.313 107.199 817.01 117.821L819.009 117.879C819.305 107.501 821.626 99.473 825.866 93.6914L824.253 92.5086ZM817.009 117.85V151H819.009V117.85H817.009ZM818.009 150H806.609V152H818.009V150ZM807.609 151V91H805.609V151H807.609ZM807.604 90.9005L806.104 75.9005L804.114 76.0995L805.614 91.0995L807.604 90.9005ZM805.185 76.9971L815.085 76.2471L814.934 74.2529L805.034 75.0029L805.185 76.9971ZM814.027 75.4349L816.877 90.5849L818.842 90.2151L815.992 75.0651L814.027 75.4349ZM818.73 90.8926C821.665 85.7061 825.212 81.7856 829.355 79.088L828.264 77.412C823.806 80.3144 820.053 84.4939 816.989 89.9074L818.73 90.8926ZM829.369 79.0791C833.534 76.2701 837.692 74.9 841.859 74.9V72.9C837.227 72.9 832.685 74.4299 828.25 77.4209L829.369 79.0791Z" fill="black"/>
</g>
<defs>
<filter id="filter0_d_15_2" x="52.5801" y="49" width="864.829" height="143.75" filterUnits="userSpaceOnUse" color-interpolation-filters="sRGB">
<feFlood flood-opacity="0" result="BackgroundImageFix"/>
<feColorMatrix in="SourceAlpha" type="matrix" values="0 0 0 0 0 0 0 0 0 0 0 0 0 0 0 0 0 0 127 0" result="hardAlpha"/>
<feOffset dy="4"/>
<feGaussianBlur stdDeviation="2"/>
<feComposite in2="hardAlpha" operator="out"/>
<feColorMatrix type="matrix" values="0 0 0 0 0 0 0 0 0 0 0 0 0 0 0 0 0 0 0.25 0"/>
<feBlend mode="normal" in2="BackgroundImageFix" result="effect1_dropShadow_15_2"/>
<feBlend mode="normal" in="SourceGraphic" in2="effect1_dropShadow_15_2" result="shape"/>
</filter>
</defs>
</svg>
